<svg width="65" height="38" viewBox="0 0 65 38" fill="none" xmlns="http://www.w3.org/2000/svg">
<path d="M64.1877 36.59C61.8597 37.182 60.4197 36.616 59.1277 34.676L49.9397 21.964L48.6117 20.204L37.8817 34.718C36.6557 36.464 35.3697 37.224 33.0817 36.606L46.8217 18.162L34.0297 1.50202C36.2297 1.07402 37.7497 1.29202 39.0997 3.26202L48.6297 16.132L58.2297 3.33202C59.4597 1.58602 60.7817 0.922017 62.9897 1.56602L58.0297 8.14202L51.3097 16.892C50.5097 17.892 50.6197 18.576 51.3557 19.542L64.1877 36.59ZM0.203744 17.854L1.32774 12.326C4.38774 1.38602 16.9277 -3.15998 25.5757 3.60002C30.6297 7.57602 31.8857 13.2 31.6357 19.5H3.14774C2.71974 30.84 10.8817 37.684 21.2877 34.192C24.9377 32.966 27.0877 30.108 28.1637 26.532C28.7097 24.74 29.6137 24.46 31.2977 24.972C30.4377 29.444 28.4977 33.18 24.3977 35.518C18.2717 39.018 9.52774 37.886 4.92774 33.022C2.18774 30.2 1.05574 26.624 0.547744 22.8C0.467744 22.168 0.307744 21.566 0.187744 20.96C0.198411 19.9253 0.203744 18.8907 0.203744 17.856V17.854ZM3.19974 17.094H28.9437C28.7757 8.89402 23.6697 3.07002 16.6917 3.02002C9.03174 2.96002 3.53174 8.64602 3.19974 17.094Z" fill="black"/>
</svg>
