<svg width="117" height="60" viewBox="0 0 117 43" fill="none" xmlns="http://www.w3.org/2000/svg">
<path d="M0.670455 21.8977V18.0795L23.3068 7.10227V12.3011L6.60227 19.9205L6.75568 19.6136V20.3466L6.60227 20.0568L23.3068 27.6591V32.875L0.670455 21.8977ZM50.8438 11.2614C50.6619 9.64773 49.9119 8.39773 48.5938 7.51136C47.2756 6.61364 45.6165 6.16477 43.6165 6.16477C42.1847 6.16477 40.946 6.39205 39.9006 6.84659C38.8551 7.28977 38.0426 7.90341 37.4631 8.6875C36.8949 9.46023 36.6108 10.3409 36.6108 11.3295C36.6108 12.1591 36.804 12.875 37.1903 13.4773C37.5881 14.0795 38.1051 14.5852 38.7415 14.9943C39.3892 15.392 40.0824 15.7273 40.821 16C41.5597 16.2614 42.2699 16.4773 42.9517 16.6477L46.3608 17.5341C47.4744 17.8068 48.6165 18.1761 49.7869 18.642C50.9574 19.108 52.0426 19.7216 53.0426 20.483C54.0426 21.2443 54.8494 22.1875 55.4631 23.3125C56.0881 24.4375 56.4006 25.7841 56.4006 27.3523C56.4006 29.3295 55.8892 31.0852 54.8665 32.6193C53.8551 34.1534 52.3835 35.3636 50.4517 36.25C48.5313 37.1364 46.2074 37.5795 43.4801 37.5795C40.8665 37.5795 38.6051 37.1648 36.696 36.3352C34.7869 35.5057 33.2926 34.3295 32.2131 32.8068C31.1335 31.2727 30.5369 29.4545 30.4233 27.3523H35.7074C35.8097 28.6136 36.2188 29.6648 36.9347 30.5057C37.6619 31.3352 38.5881 31.9545 39.7131 32.3636C40.8494 32.7614 42.0938 32.9602 43.446 32.9602C44.9347 32.9602 46.2585 32.7273 47.4176 32.2614C48.5881 31.7841 49.5085 31.125 50.179 30.2841C50.8494 29.4318 51.1847 28.4375 51.1847 27.3011C51.1847 26.267 50.8892 25.4205 50.2983 24.7614C49.7188 24.1023 48.929 23.5568 47.929 23.125C46.9403 22.6932 45.821 22.3125 44.571 21.983L40.446 20.858C37.6506 20.0966 35.4347 18.9773 33.7983 17.5C32.1733 16.0227 31.3608 14.0682 31.3608 11.6364C31.3608 9.625 31.9063 7.86932 32.9972 6.36932C34.0881 4.86932 35.5653 3.70454 37.429 2.875C39.2926 2.03409 41.3949 1.61364 43.7358 1.61364C46.0994 1.61364 48.1847 2.02841 49.9915 2.85795C51.8097 3.6875 53.2415 4.82955 54.2869 6.28409C55.3324 7.72727 55.8778 9.38636 55.9233 11.2614H50.8438ZM88.2841 0.454543L77.0341 42.25H72.483L83.733 0.454543H88.2841ZM116.494 25.1705L93.858 36.1477V30.9318L110.562 23.3295L110.392 23.6193V22.8864L110.562 23.1932L93.858 15.5739V10.375L116.494 21.3523V25.1705Z" fill="white"/>
</svg>
